<svg width="17" height="15" viewBox="0 0 17 15" fill="none" xmlns="http://www.w3.org/2000/svg">
<path d="M8.49992 14.6052L7.68846 13.8729C6.28985 12.5931 5.13534 11.488 4.22492 10.5578C3.3145 9.62762 2.58881 8.79637 2.04784 8.06408C1.50686 7.33179 1.12752 6.66876 0.909814 6.07501C0.692106 5.48126 0.583252 4.88092 0.583252 4.27397C0.583252 3.08647 0.982384 2.09359 1.78065 1.29533C2.57891 0.497063 3.5652 0.0979309 4.7395 0.0979309C5.49159 0.0979309 6.18759 0.276056 6.82752 0.632306C7.46745 0.988556 8.02492 1.50314 8.49992 2.17606C9.05408 1.46356 9.64124 0.939077 10.2614 0.602618C10.8815 0.26616 11.5478 0.0979309 12.2603 0.0979309C13.4346 0.0979309 14.4209 0.497063 15.2192 1.29533C16.0175 2.09359 16.4166 3.08647 16.4166 4.27397C16.4166 4.88092 16.3077 5.48126 16.09 6.07501C15.8723 6.66876 15.493 7.33179 14.952 8.06408C14.411 8.79637 13.6853 9.62762 12.7749 10.5578C11.8645 11.488 10.71 12.5931 9.31138 13.8729L8.49992 14.6052Z" fill="url(#paint0_linear_58_103)"/>
<defs>
<linearGradient id="paint0_linear_58_103" x1="8.49992" y1="0.0979309" x2="8.49992" y2="13.8334" gradientUnits="userSpaceOnUse">
<stop offset="0.502155" stop-color="#106CAF"/>
<stop offset="0.502155" stop-color="#FFBC0F"/>
</linearGradient>
</defs>
</svg>
