<svg width="116" height="40" viewBox="0 0 116 40" fill="none" xmlns="http://www.w3.org/2000/svg">
<g clip-path="url(#clip0_22_304)">
<path d="M6.39831 7.10797C6.84692 7.08401 7.29394 7.17847 7.69447 7.38187C8.09501 7.58526 8.43495 7.89043 8.68016 8.26672L8.78968 8.43553L11.0168 6.34154L10.9301 6.21837C9.90322 4.80414 8.32875 4.08334 6.25227 4.08334C5.42566 4.0562 4.60206 4.19571 3.83054 4.49354C3.05902 4.79138 2.3554 5.24144 1.76159 5.81691C0.629328 7.02504 -0.000732422 8.61854 -0.000732422 10.274C-0.000732422 11.9295 0.629328 13.523 1.76159 14.7311C2.3554 15.3066 3.05902 15.7567 3.83054 16.0545C4.60206 16.3523 5.42566 16.4919 6.25227 16.4647C8.32875 16.4647 9.90322 15.7394 10.9301 14.3069L11.0168 14.1837L8.79425 12.1171L8.68016 12.2768C8.43093 12.6494 8.09033 12.952 7.69087 13.1556C7.2914 13.3593 6.8464 13.4572 6.39831 13.4401C6.00259 13.4569 5.60793 13.3877 5.24156 13.2373C4.87518 13.0869 4.54582 12.8588 4.27619 12.5687C3.71423 11.9361 3.41974 11.1102 3.45472 10.2649C3.4209 9.42663 3.71563 8.60825 4.27619 7.98388C4.54834 7.69683 4.87804 7.47043 5.24372 7.31949C5.60941 7.16856 6.00284 7.09648 6.39831 7.10797Z" fill="white"/>
<path d="M20.4362 4.08297C19.5932 4.07252 18.7592 4.25674 17.9992 4.62129C17.4752 4.87254 16.9933 5.20341 16.5707 5.60213V-6.10352e-05H13.2073V16.1815H16.5707V8.34849C16.8458 7.95847 17.212 7.64154 17.6375 7.42528C18.063 7.20901 18.535 7.09997 19.0123 7.10761C19.5412 7.07079 20.0657 7.22453 20.4909 7.541C20.6727 7.74041 20.8102 7.97603 20.8944 8.23236C20.9785 8.48869 21.0075 8.75992 20.9792 9.02823V16.1815H24.3381V7.86491C24.367 7.35849 24.2942 6.8514 24.1241 6.37349C23.9541 5.89558 23.6901 5.45651 23.3478 5.08206C22.6724 4.42057 21.6912 4.08297 20.4362 4.08297Z" fill="white"/>
<path d="M37.9701 14.8315L38.0796 14.7311L36.5462 12.4911L36.4002 12.6371C36.0167 12.9983 35.5564 13.268 35.0539 13.4263C34.5421 13.6153 34.0021 13.7171 33.4566 13.7274C32.6698 13.7625 31.8979 13.5058 31.2889 13.0066C30.801 12.5991 30.4703 12.0346 30.3533 11.4099H38.8555V10.5705C38.9279 8.85693 38.3417 7.18057 37.2171 5.88528C36.6767 5.29287 36.0141 4.82491 35.2749 4.51377C34.5358 4.20263 33.7379 4.05575 32.9363 4.08328C32.1208 4.06002 31.3094 4.20659 30.5536 4.51368C29.7978 4.82076 29.1141 5.28164 28.5461 5.86704C27.9825 6.44987 27.5403 7.13869 27.2449 7.89359C26.9496 8.6485 26.8071 9.45448 26.8256 10.2648C26.7932 11.0968 26.9352 11.9264 27.2425 12.7002C27.5498 13.4741 28.0156 14.1752 28.61 14.7585C29.2132 15.3255 29.9223 15.768 30.6968 16.0608C31.4712 16.3536 32.2959 16.4908 33.1235 16.4647C35.1543 16.4647 36.7835 15.9172 37.9701 14.8315ZM31.0652 7.53219C31.3083 7.28682 31.601 7.09604 31.9236 6.97254C32.2462 6.84904 32.5915 6.79565 32.9363 6.81594C33.2907 6.79065 33.6464 6.84239 33.9788 6.96761C34.3113 7.09283 34.6127 7.28854 34.8622 7.54131C35.2412 7.94999 35.4878 8.46363 35.5696 9.01485H30.3077C30.4131 8.46102 30.6761 7.94936 31.0652 7.54131V7.53219Z" fill="white"/>
<path d="M51.5744 14.1837L49.3473 12.1171L49.2332 12.2767C48.9843 12.6497 48.6438 12.9525 48.2442 13.1562C47.8447 13.3599 47.3995 13.4577 46.9514 13.4401C46.5556 13.4569 46.161 13.3877 45.7946 13.2373C45.4282 13.0868 45.0989 12.8587 44.8292 12.5687C44.2685 11.9357 43.9756 11.1096 44.0123 10.2649C43.9768 9.42717 44.2699 8.60869 44.8292 7.98386C45.1012 7.69742 45.4312 7.47232 45.7971 7.32363C46.1631 7.17493 46.5566 7.10607 46.9514 7.12164C47.4 7.09722 47.8472 7.19147 48.2478 7.39491C48.6485 7.59835 48.9883 7.90377 49.2332 8.28039L49.3473 8.4492L51.5744 6.35521L51.4877 6.23204C50.4563 4.81781 48.8864 4.09701 46.8099 4.09701C45.9833 4.06987 45.1597 4.20938 44.3882 4.50721C43.6166 4.80505 42.913 5.25511 42.3192 5.83058C41.187 7.03871 40.5569 8.63221 40.5569 10.2877C40.5569 11.9432 41.187 13.5367 42.3192 14.7448C42.913 15.3203 43.6166 15.7703 44.3882 16.0682C45.1597 16.366 45.9833 16.5055 46.8099 16.4784C48.8864 16.4784 50.4608 15.753 51.4877 14.3205L51.5744 14.1837Z" fill="white"/>
<path d="M65.3614 4.37038H61.1993L57.1011 9.18333V-6.10352e-05H53.7422V16.1815H57.1011V13.1341L58.2876 11.8658L61.2586 16.1815H65.4663L60.6653 9.74903L65.3614 4.37038Z" fill="white"/>
<path d="M81.2796 16.1806H84.6613V7.72255C84.6613 6.52273 84.3464 5.60576 83.7486 4.98532C83.395 4.66758 82.9817 4.42328 82.5327 4.26664C82.0838 4.11001 81.6082 4.04415 81.1336 4.07292C80.2911 4.07096 79.4631 4.29129 78.7331 4.71161C78.1563 5.02913 77.6477 5.45695 77.2362 5.97073C76.7022 4.7116 75.6161 4.07292 74.0051 4.07292C73.1877 4.07232 72.3837 4.27955 71.6685 4.67511C71.2149 4.9121 70.7957 5.20986 70.4226 5.56015V4.35577H67.0637V16.1715H70.4226V8.343C70.6802 7.99977 71.0008 7.70869 71.3673 7.48533C71.7421 7.24092 72.1793 7.10948 72.6269 7.10669C73.6811 7.10669 74.1694 7.63588 74.1694 8.76726V16.1806H77.5511V8.32474C77.8024 7.99239 78.1116 7.70804 78.4638 7.48533C78.8423 7.2379 79.2848 7.10631 79.7371 7.10669C80.7867 7.10669 81.2796 7.63588 81.2796 8.76726V16.1806Z" fill="white"/>
<path d="M93.7794 13.7271C92.9927 13.7622 92.2207 13.5055 91.6117 13.0063C91.1323 12.5952 90.8099 12.0312 90.6989 11.4096H95.9517C96.6802 10.1088 97.6498 8.95844 98.8086 8.02002C98.5461 7.22961 98.1218 6.50249 97.5627 5.88497C97.0211 5.29294 96.3575 4.82527 95.6178 4.51419C94.878 4.2031 94.0795 4.05599 93.2774 4.08297C92.4639 4.05716 91.6539 4.20078 90.8989 4.50472C90.1438 4.80866 89.4603 5.26628 88.8917 5.84848C88.3267 6.43049 87.8832 7.11906 87.5871 7.87409C87.2909 8.62912 87.148 9.43552 87.1666 10.2463C87.1351 11.0786 87.278 11.9082 87.5861 12.6821C87.8941 13.4559 88.3606 14.1569 88.9556 14.7399C89.5587 15.3071 90.2677 15.7498 91.0423 16.0426C91.8168 16.3354 92.6415 16.4725 93.4691 16.4461C93.8159 16.4461 94.1445 16.4461 94.4685 16.3959C94.529 15.4205 94.7114 14.4565 95.0116 13.5264C94.612 13.6494 94.1974 13.717 93.7794 13.7271ZM91.388 7.541C91.6305 7.29599 91.9223 7.10539 92.2441 6.98189C92.566 6.8584 92.9104 6.80484 93.2546 6.82477C93.6097 6.79911 93.9661 6.85066 94.2994 6.97588C94.6326 7.1011 94.9348 7.29701 95.185 7.55013C95.5624 7.95994 95.8087 8.47303 95.8924 9.02366H90.6259C90.7334 8.46693 90.9978 7.9525 91.388 7.541Z" fill="white"/>
<path d="M38.7457 24.703C38.3232 24.2308 37.8033 23.8559 37.2219 23.6038C36.6405 23.3518 36.0113 23.2288 35.3777 23.2431C34.6596 23.225 33.9466 23.3681 33.291 23.6618C32.6355 23.9555 32.0542 24.3923 31.5899 24.9402C30.6132 26.0579 30.1204 27.5771 30.1204 29.4475C30.1204 31.318 30.6178 32.869 31.5899 33.9639C32.06 34.5024 32.6433 34.9305 33.2981 35.2175C33.9529 35.5046 34.663 35.6436 35.3777 35.6245C36.0114 35.6332 36.6395 35.5067 37.2203 35.2534C37.8011 35.0001 38.3212 34.6258 38.7457 34.1555V35.3417H42.1274V19.1601H38.7457V24.703ZM38.7457 31.4138C38.4794 31.7724 38.1282 32.0593 37.7235 32.2486C37.2843 32.4748 36.7982 32.5951 36.3042 32.5999C35.9328 32.6133 35.5632 32.5422 35.2233 32.3921C34.8833 32.2419 34.5819 32.0166 34.3418 31.7331C33.8146 31.0927 33.5417 30.2807 33.5751 29.4521C33.5376 28.6131 33.8106 27.7897 34.3418 27.1391C34.5819 26.8556 34.8833 26.6303 35.2233 26.4801C35.5632 26.33 35.9328 26.2589 36.3042 26.2723C36.7982 26.2771 37.2843 26.3975 37.7235 26.6236C38.1285 26.8146 38.4797 27.103 38.7457 27.463V31.4138Z" fill="white"/>
<path d="M48.7312 23.531H45.3723V35.3421H48.7312V23.531Z" fill="white"/>
<path d="M47.0425 18.7089C46.7842 18.7062 46.5279 18.7553 46.2889 18.8532C46.0498 18.9512 45.8328 19.096 45.6506 19.2791C45.4647 19.4552 45.317 19.6675 45.2165 19.9029C45.116 20.1383 45.065 20.3918 45.0664 20.6477C45.0712 21.1702 45.2809 21.6698 45.6505 22.0393C46.02 22.4087 46.5199 22.6183 47.0425 22.6231C47.3049 22.6282 47.5654 22.5785 47.8075 22.4772C48.0495 22.3759 48.2677 22.2251 48.4481 22.0346C48.629 21.8555 48.7725 21.6423 48.8705 21.4074C48.9684 21.1725 49.0187 20.9205 49.0186 20.666C49.0203 20.4113 48.9706 20.1588 48.8726 19.9237C48.7746 19.6886 48.6302 19.4756 48.4481 19.2974C48.2661 19.1091 48.0475 18.9598 47.8059 18.8586C47.5642 18.7574 47.3045 18.7065 47.0425 18.7089Z" fill="white"/>
<path d="M59.8435 24.7133C59.4186 24.2435 58.8985 23.8696 58.3178 23.6163C57.7371 23.363 57.1091 23.2362 56.4755 23.2444C55.7681 23.223 55.0644 23.3551 54.4129 23.6315C53.7614 23.908 53.1775 24.3222 52.7014 24.8456C51.7339 25.8995 51.241 27.3867 51.241 29.2571C51.241 31.1276 51.7339 32.6376 52.7014 33.6823C53.1795 34.2023 53.7641 34.6133 54.4154 34.8873C55.0666 35.1612 55.7693 35.2917 56.4755 35.2699C57.1125 35.275 57.7431 35.1427 58.3243 34.8821C58.9055 34.6215 59.4237 34.2387 59.8435 33.7599V34.4578C59.8435 35.425 59.5515 36.1276 58.9764 36.5427C58.3552 36.9767 57.612 37.2019 56.8543 37.186C56.2129 37.2221 55.5714 37.1184 54.974 36.8821C54.3767 36.6458 53.8379 36.2825 53.395 35.8173L53.2399 35.6485L51.6882 38.1485L51.7977 38.2444C53.2092 39.4321 55.0103 40.056 56.8543 39.9962C57.5995 40.0018 58.3427 39.9176 59.0677 39.7453C59.7749 39.5664 60.4517 39.2835 61.0757 38.9058C61.7575 38.4826 62.3039 37.8732 62.6502 37.1495C63.0533 36.2864 63.2501 35.3415 63.2252 34.3894V23.5272H59.8435V24.7133ZM59.8435 31.0546C59.5712 31.4081 59.2194 31.6925 58.8167 31.8849C58.3882 32.1146 57.9109 32.2381 57.4248 32.2453C57.0572 32.2631 56.6902 32.2009 56.349 32.0631C56.0078 31.9253 55.7006 31.715 55.4487 31.4469C54.9606 30.8221 54.6954 30.0521 54.6954 29.2594C54.6954 28.4667 54.9606 27.6967 55.4487 27.0719C55.7002 26.8029 56.0072 26.5919 56.3484 26.4532C56.6896 26.3146 57.0569 26.2517 57.4248 26.269C57.9146 26.2727 58.3965 26.3931 58.8304 26.6203C59.2321 26.8125 59.5801 27.1008 59.8435 27.4597V31.0546Z" fill="white"/>
<path d="M69.8291 23.531H66.4702V35.3421H69.8291V23.531Z" fill="white"/>
<path d="M68.1407 18.7094C67.8862 18.7097 67.6343 18.7603 67.3993 18.8582C67.1644 18.956 66.9511 19.0992 66.7716 19.2796C66.5851 19.4554 66.4367 19.6676 66.3354 19.903C66.2342 20.1384 66.1822 20.392 66.1829 20.6482C66.19 21.1707 66.4011 21.6697 66.7711 22.0388C67.1412 22.4078 67.6408 22.6177 68.1635 22.6236C68.4258 22.6282 68.6862 22.5782 68.9281 22.4769C69.1701 22.3756 69.3884 22.2252 69.5691 22.0351C69.75 21.856 69.8935 21.6428 69.9915 21.4079C70.0894 21.173 70.1397 20.921 70.1396 20.6665C70.1415 20.4113 70.0914 20.1584 69.9926 19.9232C69.8937 19.6879 69.7481 19.4752 69.5646 19.2979C69.3809 19.1066 69.1595 18.9556 68.9144 18.8543C68.6693 18.753 68.4058 18.7037 68.1407 18.7094Z" fill="white"/>
<path d="M78.8516 32.3092C78.5954 32.518 78.2683 32.6194 77.9389 32.5921C77.819 32.596 77.7 32.5716 77.5913 32.5209C77.4827 32.4702 77.3876 32.3945 77.3137 32.3001C77.1427 32.0717 77.0556 31.7914 77.0672 31.5063V26.4881H79.3947V23.5091H77.0672V20.3749H73.6855V23.5091H71.7825V26.4881H73.6855V32.3092C73.6576 32.756 73.7213 33.2038 73.8728 33.6251C74.0242 34.0464 74.2602 34.4323 74.5663 34.7591C75.2683 35.3668 76.1817 35.6733 77.1083 35.6122C78.272 35.6122 79.1574 35.3521 79.7416 34.8366L79.8237 34.7636L79.0707 32.0994L78.8516 32.3092Z" fill="white"/>
<path d="M90.4753 24.2971C89.3827 23.5591 88.0826 23.1898 86.765 23.2433C84.8852 23.1941 83.0557 23.8537 81.64 25.0909L81.535 25.1822L82.8494 27.5088L83.0091 27.3628C83.878 26.525 85.0375 26.0558 86.2448 26.0535C86.8577 26.023 87.4638 26.1945 87.9698 26.5417C88.1691 26.6862 88.3299 26.8774 88.4381 27.0985C88.5463 27.3196 88.5986 27.5639 88.5905 27.8099V28.923C87.7736 28.1657 86.6098 27.778 85.1266 27.778C84.0795 27.7618 83.0579 28.1012 82.2287 28.7406C81.8008 29.0906 81.4628 29.5378 81.2429 30.0449C81.023 30.552 80.9276 31.1043 80.9646 31.6557C80.9398 32.2092 81.043 32.761 81.2662 33.2682C81.4894 33.7754 81.8266 34.2242 82.2515 34.58C83.0544 35.2601 84.0742 35.6307 85.1266 35.6247C86.3955 35.6935 87.6402 35.2591 88.5905 34.4157V35.3282H91.9494V27.746C91.9494 26.1721 91.4565 25.0088 90.4753 24.2971ZM88.5905 32.3583C88.1311 32.9452 87.3796 33.2403 86.336 33.2433C85.8226 33.2622 85.3169 33.115 84.8939 32.8236C84.7179 32.7018 84.5755 32.5377 84.4797 32.3463C84.384 32.1549 84.3381 31.9425 84.3463 31.7287C84.3362 31.5088 84.3809 31.2899 84.4765 31.0916C84.5721 30.8933 84.7156 30.7219 84.8939 30.5928C85.3153 30.2972 85.8215 30.1467 86.336 30.1639C87.3765 30.1639 88.128 30.4589 88.5905 31.049V32.3583Z" fill="white"/>
<path d="M95.1941 21.3595V35.3467H98.553V26.1086C97.0554 24.8296 95.9009 23.1973 95.1941 21.3595Z" fill="white"/>
<path d="M106.188 26.967C111.604 26.967 115.995 22.5777 115.995 17.1631C115.995 11.7486 111.604 7.35931 106.188 7.35931C100.772 7.35931 96.3806 11.7486 96.3806 17.1631C96.3806 22.5777 100.772 26.967 106.188 26.967Z" fill="url(#paint0_linear_22_304)"/>
</g>
<defs>
<linearGradient id="paint0_linear_22_304" x1="99.2534" y1="24.0988" x2="113.121" y2="10.2258" gradientUnits="userSpaceOnUse">
<stop offset="0.04" stop-color="#F19300"/>
<stop offset="0.34" stop-color="#EB5D2D"/>
<stop offset="0.64" stop-color="#E62B57"/>
<stop offset="0.87" stop-color="#E20C70"/>
<stop offset="1" stop-color="#E1007A"/>
</linearGradient>
<clipPath id="clip0_22_304">
<rect width="116" height="40" fill="white"/>
</clipPath>
</defs>
</svg>
