<svg width="20" height="20" viewBox="0 0 20 20" fill="none" xmlns="http://www.w3.org/2000/svg">
<path d="M2.39993 8.71199L5.23045 9.91391C5.56298 9.24884 5.9239 8.59413 6.31321 7.94977C6.7025 7.3054 7.1235 6.68874 7.57623 6.0998L5.60909 5.71318C5.55567 5.69982 5.50392 5.70148 5.45383 5.71818C5.40374 5.73489 5.35867 5.76327 5.3186 5.80334L2.39993 8.71199ZM11.3923 17.7144L14.3109 14.8057C14.351 14.7656 14.3777 14.7189 14.3911 14.6655C14.4044 14.612 14.4078 14.5619 14.4011 14.5152L14.0045 12.5481C13.4155 12.9941 12.8005 13.4118 12.1595 13.8011C11.5185 14.1904 10.8621 14.5546 10.1903 14.8938L11.3923 17.7144ZM19.5713 0.55295C19.6675 2.74712 19.364 4.72794 18.6609 6.49542C17.9578 8.26291 16.837 9.91253 15.2985 11.4443C15.2544 11.4884 15.212 11.5325 15.1713 11.5765C15.1306 11.6206 15.0882 11.6613 15.0441 11.6987L15.5569 14.2728C15.6023 14.5266 15.5876 14.7699 15.5128 15.003C15.4381 15.236 15.3119 15.4413 15.1342 15.619L10.9916 19.7776L9.01849 15.1522L4.95201 11.0958L0.33667 9.10261L4.48529 4.97001C4.66958 4.7924 4.87824 4.66454 5.11128 4.58641C5.34432 4.50829 5.58771 4.49527 5.84146 4.54735L8.42558 5.06016C8.46964 5.02277 8.51037 4.9847 8.54776 4.94597C8.58516 4.90724 8.6259 4.86917 8.66998 4.83178C10.2084 3.29332 11.8597 2.17153 13.6239 1.46641C15.388 0.761292 17.3705 0.456804 19.5713 0.55295ZM2.06144 14.1667C2.5689 13.6525 3.18588 13.3961 3.91237 13.3975C4.63885 13.3988 5.25916 13.6532 5.77331 14.1607C6.28078 14.6681 6.53184 15.2851 6.52651 16.0116C6.52117 16.7381 6.26476 17.3584 5.7573 17.8726C5.34598 18.2772 4.7173 18.6154 3.87128 18.8872C3.02527 19.1589 1.85976 19.385 0.374743 19.5652C0.555021 18.0802 0.77838 16.9104 1.04482 16.0557C1.31124 15.201 1.65012 14.5713 2.06144 14.1667ZM2.88472 15.026C2.64835 15.2798 2.43634 15.6694 2.2487 16.1949C2.06108 16.7204 1.91118 17.3671 1.79899 18.135C2.56689 18.0161 3.21359 17.8629 3.73909 17.6753C4.2646 17.4876 4.65421 17.2723 4.90795 17.0292C5.20442 16.7608 5.35533 16.4269 5.36068 16.0276C5.36601 15.6283 5.22578 15.2804 4.94 14.984C4.64353 14.6982 4.29564 14.5596 3.89633 14.5683C3.49703 14.577 3.15982 14.7296 2.88472 15.026Z" fill="white"/>
<path d="M11.6826 6.80698C11.6826 7.26236 11.8395 7.64363 12.1534 7.95078C12.4672 8.26462 12.8535 8.42154 13.3122 8.42154C13.7709 8.42154 14.1572 8.26462 14.4711 7.95078C14.7849 7.64363 14.9418 7.26236 14.9418 6.80698C14.9418 6.35158 14.7849 5.96696 14.4711 5.65313C14.1572 5.33929 13.7709 5.18237 13.3122 5.18237C12.8535 5.18237 12.4672 5.33929 12.1534 5.65313C11.8395 5.96696 11.6826 6.35158 11.6826 6.80698Z" fill="#E1007A"/>
</svg>
